<svg width="86" height="86" viewBox="0 0 86 86" fill="none" xmlns="http://www.w3.org/2000/svg">
<g clip-path="url(#clip0_3_105)">
<path d="M64.0716 0.431641C57.1515 0.431641 53.4253 2.56091 51.296 4.69018C49.1667 2.56091 45.4405 0.431641 37.9881 0.431641C19.8893 0.431641 16.6953 11.078 16.6953 11.078V32.3707H0.725815V85.6025H37.9881V61.1159L45.9728 60.0512C45.9728 60.0512 47.0375 58.4543 47.5698 63.7775H54.4899C55.0222 58.4543 56.6192 60.0512 56.6192 60.0512L85.8967 63.7775V11.6103C85.8967 11.6103 82.7027 0.431641 64.0716 0.431641ZM6.04899 37.6939H32.6649V48.3402H6.04899V37.6939ZM32.6649 53.6634V58.9866H27.3417V53.6634H32.6649ZM22.0185 53.6634V58.9866H16.6953V53.6634H22.0185ZM11.3722 80.2793H6.04899V74.9561H11.3722V80.2793ZM11.3722 69.6329H6.04899V64.3098H11.3722V69.6329ZM11.3722 58.9866H6.04899V53.6634H11.3722V58.9866ZM22.0185 80.2793H16.6953V74.9561H22.0185V80.2793ZM22.0185 69.6329H16.6953V64.3098H22.0185V69.6329ZM32.6649 80.2793H27.3417V74.9561H32.6649V80.2793ZM32.6649 69.6329H27.3417V64.3098H32.6649V69.6329ZM48.6344 51.0018C43.8436 50.4695 41.7143 49.4049 37.9881 49.4049V32.3707H22.0185V11.6103C22.0185 9.48104 26.2771 3.62555 37.9881 3.62555C47.5698 3.62555 48.1021 7.88409 48.1021 8.94872V51.0018H48.6344ZM80.5735 53.1311C75.2503 51.0018 74.718 49.4049 67.2655 49.4049H66.2009C60.8777 49.4049 59.2808 50.4695 53.9576 51.5341V11.078V10.5457V10.0134C53.9576 8.94872 55.0222 4.15786 64.0716 4.15786C76.3149 4.15786 80.5735 8.94872 80.5735 11.6103V53.1311Z" fill="url(#paint0_linear_3_105)"/>
</g>
<defs>
<linearGradient id="paint0_linear_3_105" x1="0.725815" y1="85.6025" x2="85.8967" y2="0.431641" gradientUnits="userSpaceOnUse">
<stop stop-color="#550101"/>
<stop offset="1" stop-color="#EF0101"/>
</linearGradient>
<clipPath id="clip0_3_105">
<rect width="85.1708" height="85.1708" fill="white" transform="translate(0.725815 0.431641)"/>
</clipPath>
</defs>
</svg>
