<svg width="79" height="79" viewBox="0 0 79 79" fill="none" xmlns="http://www.w3.org/2000/svg">
<path d="M40.1122 47.9004C38.0813 47.9004 36.8963 49.8326 36.8963 52.4198C36.8963 55.0236 38.1175 56.8636 40.132 56.8636C42.163 56.8636 43.3282 54.9281 43.3282 52.3408C43.3282 49.9511 42.1827 47.9004 40.1122 47.9004Z" fill="#7A7A7E"/>
<path d="M46.0833 6.5835H19.75C18.004 6.5835 16.3295 7.27709 15.0949 8.51171C13.8603 9.74632 13.1667 11.4208 13.1667 13.1668V65.8335C13.1667 67.5795 13.8603 69.254 15.0949 70.4886C16.3295 71.7232 18.004 72.4168 19.75 72.4168H59.25C60.996 72.4168 62.6705 71.7232 63.9051 70.4886C65.1397 69.254 65.8333 67.5795 65.8333 65.8335V26.3335L46.0833 6.5835ZM30.1352 57.4529C28.733 58.6182 26.6033 59.1679 23.9995 59.1679C22.436 59.1679 21.3333 59.0691 20.5828 58.9704V45.8992C21.929 45.7053 23.288 45.614 24.648 45.626C27.176 45.626 28.8153 46.0802 30.0957 47.048C31.4782 48.075 32.3472 49.7142 32.3472 52.0579C32.3472 54.6089 31.419 56.3667 30.1352 57.4529ZM39.9773 59.2502C36.0273 59.2502 33.7198 56.2679 33.7198 52.4759C33.7198 48.4897 36.2643 45.5107 40.1945 45.5107C44.2795 45.5107 46.5112 48.5687 46.5112 52.2422C46.508 56.6037 43.8615 59.2502 39.9773 59.2502ZM55.3 56.7419C56.2052 56.7419 57.2125 56.5411 57.8083 56.3074L58.2625 58.6544C57.7095 58.9309 56.4653 59.2271 54.849 59.2271C50.2506 59.2271 47.8806 56.3667 47.8806 52.5747C47.8806 48.0355 51.1163 45.5107 55.1453 45.5107C56.7055 45.5107 57.8872 45.8267 58.4205 46.1032L57.8083 48.493C57.0068 48.1618 56.1474 47.9939 55.2803 47.9992C52.8905 47.9992 51.034 49.441 51.034 52.4035C51.034 55.0665 52.614 56.7419 55.3 56.7419ZM46.0833 29.6252H42.7917V13.1668L59.25 29.6252H46.0833Z" fill="#7A7A7E"/>
<path d="M24.964 47.9365C24.2958 47.9365 23.8613 47.9958 23.6045 48.055V56.7615C23.8613 56.8207 24.276 56.8207 24.648 56.8207C27.3735 56.8405 29.1477 55.3428 29.1477 52.163C29.1675 49.398 27.5512 47.9365 24.964 47.9365Z" fill="#7A7A7E"/>
</svg>
