<svg width="102" height="101" viewBox="0 0 102 101" fill="none" xmlns="http://www.w3.org/2000/svg">
<path d="M31.9225 9.14746C34.1566 9.14746 36.2991 10.0185 37.8788 11.569C39.4585 13.1194 40.346 15.2223 40.346 17.415C40.346 19.6076 39.4585 21.7105 37.8788 23.261C36.2991 24.8114 34.1566 25.6825 31.9225 25.6825C29.6885 25.6825 27.5459 24.8114 25.9662 23.261C24.3865 21.7105 23.499 19.6076 23.499 17.415C23.499 15.2223 24.3865 13.1194 25.9662 11.569C27.5459 10.0185 29.6885 9.14746 31.9225 9.14746ZM25.6049 29.8162H38.2402C40.4742 29.8162 42.6167 30.6873 44.1965 32.2377C45.7762 33.7882 46.6636 35.891 46.6636 38.0837V60.8193H40.346V91.8225H23.499V60.8193H17.1814V38.0837C17.1814 35.891 18.0689 33.7882 19.6486 32.2377C21.2283 30.6873 23.3709 29.8162 25.6049 29.8162ZM69.8282 9.14746C72.0623 9.14746 74.2048 10.0185 75.7845 11.569C77.3643 13.1194 78.2517 15.2223 78.2517 17.415C78.2517 19.6076 77.3643 21.7105 75.7845 23.261C74.2048 24.8114 72.0623 25.6825 69.8282 25.6825C67.5942 25.6825 65.4516 24.8114 63.8719 23.261C62.2922 21.7105 61.4047 19.6076 61.4047 17.415C61.4047 15.2223 62.2922 13.1194 63.8719 11.569C65.4516 10.0185 67.5942 9.14746 69.8282 9.14746ZM63.5106 91.8225V67.02H50.8754L61.7838 35.6448C62.8367 32.2551 66.0377 29.8162 69.8282 29.8162C73.6188 29.8162 76.8197 32.2551 77.8727 35.6448L88.7811 67.02H76.1459V91.8225H63.5106Z" fill="url(#paint0_linear_3_107)"/>
<defs>
<linearGradient id="paint0_linear_3_107" x1="17.1814" y1="91.8225" x2="99.0086" y2="20.957" gradientUnits="userSpaceOnUse">
<stop stop-color="#550101"/>
<stop offset="1" stop-color="#EF0101"/>
</linearGradient>
</defs>
</svg>
