<svg width="24" height="24" viewBox="0 0 24 24" fill="none" xmlns="http://www.w3.org/2000/svg">
<path d="M21 10C21 17 12 23 12 23C12 23 3 17 3 10C3 7.61305 3.94821 5.32387 5.63604 3.63604C7.32387 1.94821 9.61305 1 12 1C14.3869 1 16.6761 1.94821 18.364 3.63604C20.0518 5.32387 21 7.61305 21 10Z" stroke="url(#paint0_linear_5_223)" stroke-width="2" stroke-linecap="round" stroke-linejoin="round"/>
<path d="M12 13C13.6569 13 15 11.6569 15 10C15 8.34315 13.6569 7 12 7C10.3431 7 9 8.34315 9 10C9 11.6569 10.3431 13 12 13Z" stroke="url(#paint1_linear_5_223)" stroke-width="2" stroke-linecap="round" stroke-linejoin="round"/>
<defs>
<linearGradient id="paint0_linear_5_223" x1="3" y1="23" x2="24.5644" y2="5.35644" gradientUnits="userSpaceOnUse">
<stop stop-color="#550101"/>
<stop offset="1" stop-color="#EF0101"/>
</linearGradient>
<linearGradient id="paint1_linear_5_223" x1="9" y1="13" x2="15" y2="7" gradientUnits="userSpaceOnUse">
<stop stop-color="#550101"/>
<stop offset="1" stop-color="#EF0101"/>
</linearGradient>
</defs>
</svg>
