<svg width="131" height="48" viewBox="0 0 131 48" fill="none" xmlns="http://www.w3.org/2000/svg">
<path fill-rule="evenodd" clip-rule="evenodd" d="M48.6165 33.3457L48.1213 32.0807C46.6828 31.3049 45.5451 30.2363 44.8461 28.798C44.845 28.7958 44.8441 28.7939 44.8431 28.7916C44.5323 28.1098 44.4216 27.3361 44.3797 26.6252C44.3174 25.5651 44.4054 24.4848 44.5493 23.4293L44.5972 23.0775L40.3738 12.2879H31.7623L17.6969 33.3458H26.3905L28.2248 30.1169H38.9688L39.9639 33.3458H48.6165V33.3457ZM38.0655 26.2141H30.1921L35.3573 17.2014L38.0655 26.2141H38.0655Z" fill="white"/>
<path d="M68.64 20.8233H60.8896H57.2399L56.1043 24.6418H60.6561L60.0246 29.2746H59.4095H58.5894C55.7189 29.2746 54.0015 28.9377 53.4 28.2357C52.6668 27.8988 52.2343 26.8599 52.5252 24.7261L52.973 21.441C53.283 19.1668 54.1906 17.6225 55.0156 17.2856C55.961 16.6679 57.8074 16.3591 60.5549 16.3591C62.1952 16.3591 65.2068 16.5276 68.1544 16.8645L68.0647 12.7091C65.3259 12.3441 62.8103 12.1475 60.3499 12.1475C54.4858 12.1475 50.4551 13.4391 47.8065 16.0222C46.5501 17.1172 45.6556 19.1668 45.2576 22.0868L45.0701 23.4626C44.7333 25.9334 44.8689 27.6461 45.3424 28.685C46.9116 31.9138 50.9582 33.5142 57.3964 33.5142C59.5145 33.5142 61.3537 33.4141 62.9054 33.2782C62.9135 33.2508 62.9265 33.2236 62.9444 33.1968L67.9812 25.6559L68.1194 24.6419L68.2993 23.3222L68.64 20.8234V20.8233Z" fill="white"/>
<path fill-rule="evenodd" clip-rule="evenodd" d="M93.5569 32.9345L85.6362 12.6991H77.8712L64.3552 32.9345H71.7029L73.5372 29.7057H85.179L86.1742 32.9345H93.5569ZM84.5254 26.6253H75.0344L81.2608 15.7609L84.5254 26.6253Z" fill="white"/>
<path fill-rule="evenodd" clip-rule="evenodd" d="M114.138 14.9552C112.877 13.074 110.498 12.1756 105.823 12.1756C101.887 12.1756 98.6393 12.2317 96.298 12.2598C94.941 12.2879 93.7107 12.2879 92.5997 12.316L91.0629 23.5908L94.8449 33.2531C94.8572 33.2843 94.8635 33.3153 94.864 33.3458H97.4016L98.2436 27.1688C99.056 27.2249 99.8275 27.2811 100.517 27.3373C101.777 27.4215 103.122 27.4776 103.741 27.4496C108.826 27.4496 111.637 26.3826 113.431 24.0522C114.015 23.3784 114.392 22.1149 114.637 20.318L114.771 19.3353C115.062 17.2014 114.701 15.9379 114.138 14.9552H114.138ZM107.853 18.9422L107.597 20.8233C107.417 22.143 107.035 22.536 106.359 22.9853C105.63 23.5187 104.489 23.7714 98.7679 23.3222L99.7476 16.1344C104.916 15.8255 106.566 16.0502 107.421 16.6959C107.823 17.0609 108.041 17.5663 107.853 18.9421V18.9422Z" fill="white"/>
<path fill-rule="evenodd" clip-rule="evenodd" d="M120.398 16.3591H130.445L131 12.2879H113.039L112.915 13.1948C113.025 13.2612 113.132 13.3305 113.236 13.4032C113.819 13.8114 114.266 14.288 114.613 14.8058C114.618 14.8122 114.621 14.8178 114.625 14.8244C115.458 16.2781 115.501 17.8315 115.292 19.3685L115.158 20.3513C115.052 21.1273 114.914 21.92 114.672 22.6822C114.51 23.1933 114.278 23.773 113.888 24.227C113.285 25.0085 112.524 25.7133 111.525 26.2791C111.386 26.3576 111.245 26.4322 111.101 26.5033L110.169 33.3458H128.13L128.696 29.1904H118.649L119.266 24.6699H126.77L127.786 20.8234H119.79L120.398 16.3591L120.398 16.3591Z" fill="white"/>
<path fill-rule="evenodd" clip-rule="evenodd" d="M40.632 0.762665C54.0953 0.762665 66.027 3.72185 73.4205 8.27831C66.3551 5.59328 57.238 3.97483 47.2829 3.97483C24.8425 3.97483 6.65101 12.1938 6.65101 22.3324C6.65101 26.3883 9.56447 30.1362 14.4944 33.1743C5.63312 29.8068 0 24.7611 0 19.1203C0 8.98165 18.1915 0.762665 40.6319 0.762665L40.632 0.762665Z" fill="url(#paint0_linear_1_46)"/>
<path d="M24.7317 42.1854C24.6198 43.1427 24.2655 43.8825 23.6687 44.4046C23.0761 44.9227 22.2866 45.1817 21.3003 45.1817C20.2311 45.1817 19.3733 44.7983 18.7268 44.0317C18.0845 43.265 17.7633 42.2393 17.7633 40.9546V40.0844C17.7633 39.2431 17.9125 38.5034 18.2109 37.8652C18.5134 37.227 18.9402 36.738 19.4914 36.3981C20.0426 36.0542 20.6808 35.8822 21.406 35.8822C22.3674 35.8822 23.1382 36.1516 23.7184 36.6903C24.2986 37.2249 24.6364 37.9667 24.7317 38.9157H23.5319C23.4283 38.1946 23.2025 37.6725 22.8544 37.3492C22.5104 37.026 22.0276 36.8644 21.406 36.8644C20.6435 36.8644 20.0446 37.1462 19.6095 37.7098C19.1785 38.2734 18.963 39.0753 18.963 40.1154V40.9919C18.963 41.9741 19.1682 42.7553 19.5784 43.3354C19.9887 43.9156 20.5627 44.2057 21.3003 44.2057C21.9634 44.2057 22.471 44.0565 22.8233 43.7582C23.1797 43.4556 23.4159 42.9314 23.5319 42.1854H24.7317ZM25.8817 41.6322C25.8817 40.9733 26.0101 40.3807 26.2671 39.8544C26.5282 39.3281 26.8887 38.9219 27.3487 38.636C27.8128 38.35 28.3412 38.2071 28.9338 38.2071C29.8497 38.2071 30.5894 38.5241 31.153 39.1581C31.7208 39.7922 32.0046 40.6355 32.0046 41.6882V41.769C32.0046 42.4237 31.8783 43.0122 31.6255 43.5344C31.3768 44.0524 31.0183 44.4564 30.5501 44.7465C30.0859 45.0366 29.5513 45.1817 28.9463 45.1817C28.0346 45.1817 27.2948 44.8646 26.7271 44.2306C26.1635 43.5965 25.8817 42.7573 25.8817 41.713V41.6322ZM27.0379 41.769C27.0379 42.5149 27.2099 43.1137 27.5538 43.5654C27.9019 44.0172 28.3661 44.243 28.9463 44.243C29.5306 44.243 29.9947 44.0151 30.3387 43.5592C30.6827 43.0992 30.8546 42.4569 30.8546 41.6322C30.8546 40.8945 30.6785 40.2978 30.3263 39.8419C29.9782 39.3819 29.514 39.1519 28.9338 39.1519C28.3661 39.1519 27.9082 39.3778 27.5601 39.8295C27.2119 40.2812 27.0379 40.9277 27.0379 41.769ZM34.5347 38.3314L34.5719 39.1768C35.0858 38.5303 35.7572 38.2071 36.586 38.2071C38.0074 38.2071 38.7244 39.009 38.7368 40.6127V45.0573H37.5868V40.6065C37.5827 40.1217 37.4708 39.7632 37.2511 39.5311C37.0356 39.2991 36.6979 39.183 36.2379 39.183C35.8649 39.183 35.5375 39.2825 35.2557 39.4814C34.9739 39.6803 34.7543 39.9414 34.5968 40.2646V45.0573H33.4468V38.3314H34.5347ZM42.0314 36.7027V38.3314H43.2871V39.2203H42.0314V43.3914C42.0314 43.6608 42.0874 43.8638 42.1993 44.0006C42.3111 44.1332 42.5018 44.1995 42.7711 44.1995C42.9038 44.1995 43.0861 44.1746 43.3182 44.1249V45.0573C43.0156 45.1402 42.7214 45.1817 42.4355 45.1817C41.9216 45.1817 41.5341 45.0263 41.273 44.7155C41.012 44.4046 40.8814 43.9633 40.8814 43.3914V39.2203H39.6568V38.3314H40.8814V36.7027H42.0314ZM48.7884 45.0573C48.7221 44.9247 48.6683 44.6885 48.6268 44.3487C48.0922 44.904 47.454 45.1817 46.7122 45.1817C46.0492 45.1817 45.5042 44.9952 45.0774 44.6222C44.6547 44.2451 44.4433 43.7685 44.4433 43.1925C44.4433 42.4921 44.7085 41.9492 45.239 41.5638C45.7736 41.1743 46.5237 40.9795 47.4893 40.9795H48.6082V40.4511C48.6082 40.0491 48.488 39.73 48.2476 39.4938C48.0073 39.2535 47.6529 39.1333 47.1847 39.1333C46.7744 39.1333 46.4304 39.2369 46.1528 39.4441C45.8751 39.6513 45.7363 39.902 45.7363 40.1963H44.5801C44.5801 39.8606 44.6982 39.5373 44.9344 39.2265C45.1747 38.9116 45.498 38.6629 45.9041 38.4806C46.3144 38.2982 46.764 38.2071 47.253 38.2071C48.028 38.2071 48.6351 38.4018 49.0744 38.7914C49.5137 39.1768 49.7416 39.7093 49.7582 40.389V43.4846C49.7582 44.1021 49.8369 44.5932 49.9944 44.9579V45.0573H48.7884ZM46.8801 44.1809C47.2406 44.1809 47.5825 44.0876 47.9057 43.9011C48.229 43.7146 48.4631 43.4722 48.6082 43.1738V41.7938H47.7068C46.2978 41.7938 45.5933 42.2062 45.5933 43.0309C45.5933 43.3914 45.7135 43.6732 45.9538 43.8763C46.1942 44.0793 46.5029 44.1809 46.8801 44.1809ZM57.2549 41.769C57.2549 42.7967 57.0187 43.6235 56.5463 44.2492C56.0739 44.8709 55.4398 45.1817 54.6441 45.1817C53.7946 45.1817 53.1377 44.8812 52.6736 44.2803L52.6176 45.0573H51.5609V35.5092H52.7109V39.0711C53.175 38.4951 53.8153 38.2071 54.6317 38.2071C55.4481 38.2071 56.0884 38.5158 56.5525 39.1333C57.0208 39.7508 57.2549 40.5962 57.2549 41.6695V41.769ZM56.1049 41.6384C56.1049 40.8552 55.9537 40.2501 55.6512 39.8233C55.3486 39.3964 54.9135 39.183 54.3457 39.183C53.5874 39.183 53.0424 39.5353 52.7109 40.2398V43.149C53.0631 43.8535 53.6122 44.2057 54.3582 44.2057C54.9094 44.2057 55.3383 43.9923 55.6449 43.5654C55.9516 43.1386 56.1049 42.4963 56.1049 41.6384ZM59.959 45.0573H58.809V38.3314H59.959V45.0573ZM58.7157 36.5473C58.7157 36.3609 58.7717 36.2034 58.8836 36.0749C58.9996 35.9464 59.1695 35.8822 59.3933 35.8822C59.6171 35.8822 59.787 35.9464 59.903 36.0749C60.0191 36.2034 60.0771 36.3609 60.0771 36.5473C60.0771 36.7338 60.0191 36.8892 59.903 37.0136C59.787 37.1379 59.6171 37.2 59.3933 37.2C59.1695 37.2 58.9996 37.1379 58.8836 37.0136C58.7717 36.8892 58.7157 36.7338 58.7157 36.5473ZM63.0547 45.0573H61.9047V35.5092H63.0547V45.0573ZM66.1503 45.0573H65.0003V38.3314H66.1503V45.0573ZM64.9071 36.5473C64.9071 36.3609 64.963 36.2034 65.0749 36.0749C65.191 35.9464 65.3609 35.8822 65.5847 35.8822C65.8085 35.8822 65.9784 35.9464 66.0944 36.0749C66.2104 36.2034 66.2685 36.3609 66.2685 36.5473C66.2685 36.7338 66.2104 36.8892 66.0944 37.0136C65.9784 37.1379 65.8085 37.2 65.5847 37.2C65.3609 37.2 65.191 37.1379 65.0749 37.0136C64.963 36.8892 64.9071 36.7338 64.9071 36.5473ZM67.7168 41.6384C67.7168 40.6065 67.9613 39.7777 68.4503 39.1519C68.9394 38.522 69.5796 38.2071 70.3712 38.2071C71.1585 38.2071 71.7822 38.4764 72.2422 39.0152V35.5092H73.3922V45.0573H72.3355L72.2795 44.3363C71.8195 44.8999 71.1793 45.1817 70.3587 45.1817C69.5796 45.1817 68.9435 44.8626 68.4503 44.2244C67.9613 43.5862 67.7168 42.7532 67.7168 41.7254V41.6384ZM68.8668 41.769C68.8668 42.5315 69.0243 43.1282 69.3393 43.5592C69.6542 43.9902 70.0894 44.2057 70.6447 44.2057C71.374 44.2057 71.9066 43.8783 72.2422 43.2236V40.1341C71.8983 39.5 71.3699 39.183 70.6571 39.183C70.0935 39.183 69.6542 39.4006 69.3393 39.8357C69.0243 40.2709 68.8668 40.9153 68.8668 41.769ZM79.335 45.0573C79.2686 44.9247 79.2148 44.6885 79.1733 44.3487C78.6387 44.904 78.0005 45.1817 77.2587 45.1817C76.5957 45.1817 76.0507 44.9952 75.6239 44.6222C75.2012 44.2451 74.9898 43.7685 74.9898 43.1925C74.9898 42.4921 75.255 41.9492 75.7855 41.5638C76.3201 41.1743 77.0702 40.9795 78.0358 40.9795H79.1547V40.4511C79.1547 40.0491 79.0345 39.73 78.7941 39.4938C78.5538 39.2535 78.1995 39.1333 77.7312 39.1333C77.3209 39.1333 76.9769 39.2369 76.6993 39.4441C76.4216 39.6513 76.2828 39.902 76.2828 40.1963H75.1266C75.1266 39.8606 75.2447 39.5373 75.4809 39.2265C75.7213 38.9116 76.0445 38.6629 76.4506 38.4806C76.8609 38.2982 77.3105 38.2071 77.7995 38.2071C78.5745 38.2071 79.1816 38.4018 79.6209 38.7914C80.0602 39.1768 80.2881 39.7093 80.3047 40.389V43.4846C80.3047 44.1021 80.3834 44.5932 80.5409 44.9579V45.0573H79.335ZM77.4266 44.1809C77.7871 44.1809 78.129 44.0876 78.4522 43.9011C78.7755 43.7146 79.0096 43.4722 79.1547 43.1738V41.7938H78.2533C76.8443 41.7938 76.1398 42.2062 76.1398 43.0309C76.1398 43.3914 76.26 43.6732 76.5004 43.8763C76.7407 44.0793 77.0495 44.1809 77.4266 44.1809ZM81.8277 41.6384C81.8277 40.6065 82.0722 39.7777 82.5612 39.1519C83.0502 38.522 83.6904 38.2071 84.482 38.2071C85.2694 38.2071 85.8931 38.4764 86.3531 39.0152V35.5092H87.5031V45.0573H86.4463L86.3904 44.3363C85.9304 44.8999 85.2901 45.1817 84.4695 45.1817C83.6904 45.1817 83.0543 44.8626 82.5612 44.2244C82.0722 43.5862 81.8277 42.7532 81.8277 41.7254V41.6384ZM82.9777 41.769C82.9777 42.5315 83.1351 43.1282 83.4501 43.5592C83.765 43.9902 84.2002 44.2057 84.7555 44.2057C85.4849 44.2057 86.0174 43.8783 86.3531 43.2236V40.1341C86.0091 39.5 85.4807 39.183 84.7679 39.183C84.2043 39.183 83.765 39.4006 83.4501 39.8357C83.1351 40.2709 82.9777 40.9153 82.9777 41.769ZM92.0844 45.1817C91.1727 45.1817 90.4309 44.8833 89.859 44.2865C89.2871 43.6856 89.0012 42.8837 89.0012 41.8809V41.6695C89.0012 41.0023 89.1276 40.4076 89.3804 39.8854C89.6373 39.3591 89.9937 38.9489 90.4496 38.6546C90.9096 38.3563 91.4069 38.2071 91.9414 38.2071C92.8159 38.2071 93.4955 38.4951 93.9804 39.0711C94.4652 39.6472 94.7077 40.4718 94.7077 41.5452V42.0238H90.1512C90.1678 42.6869 90.3605 43.2236 90.7293 43.6338C91.1023 44.04 91.5747 44.243 92.1466 44.243C92.5527 44.243 92.8967 44.1601 93.1785 43.9944C93.4603 43.8286 93.7069 43.609 93.9182 43.3354L94.6206 43.8825C94.057 44.7486 93.2116 45.1817 92.0844 45.1817ZM91.9414 39.1519C91.4773 39.1519 91.0878 39.3218 90.7728 39.6617C90.4578 39.9973 90.2631 40.4698 90.1885 41.079H93.5577V40.9919C93.5245 40.4076 93.367 39.9559 93.0852 39.6368C92.8034 39.3136 92.4222 39.1519 91.9414 39.1519Z" fill="white"/>
<defs>
<linearGradient id="paint0_linear_1_46" x1="65.5702" y1="5.12168" x2="-26.0473" y2="22.9593" gradientUnits="userSpaceOnUse">
<stop stop-color="#FF0000"/>
<stop offset="1"/>
</linearGradient>
</defs>
</svg>
