<svg width="267" height="99" viewBox="0 0 267 99" fill="none" xmlns="http://www.w3.org/2000/svg">
<path fill-rule="evenodd" clip-rule="evenodd" d="M99.2131 68.9817L98.2046 66.3394C95.2749 64.7188 92.9578 62.4868 91.5341 59.4826C91.5319 59.4779 91.5301 59.474 91.528 59.4693C90.8951 58.0451 90.6695 56.429 90.5843 54.944C90.4573 52.7297 90.6366 50.4734 90.9296 48.2687L91.0272 47.5338L82.4256 24.9968H64.8869L36.2406 68.9818H53.9464L57.6824 62.2374H79.5641L81.5908 68.9818H99.2131V68.9817ZM77.7244 54.0855H61.6889L72.2087 35.2599L77.7243 54.0855H77.7244Z" fill="#10111B"/>
<path d="M139.994 42.8253H124.209H116.776L114.463 50.8013H123.734L122.448 60.478H121.195H119.524C113.678 60.478 110.18 59.7742 108.955 58.308C107.462 57.6043 106.581 55.4344 107.174 50.9772L108.086 44.1156C108.717 39.3652 110.566 36.1396 112.246 35.4359C114.171 34.1456 117.932 33.5006 123.528 33.5006C126.868 33.5006 133.002 33.8525 139.005 34.5562L138.822 25.8765C133.245 25.1141 128.121 24.7036 123.11 24.7036C111.167 24.7036 102.958 27.4013 97.5635 32.7968C95.0045 35.0841 93.1827 39.3653 92.3721 45.4645L91.9902 48.3382C91.3043 53.4991 91.5805 57.0765 92.5449 59.2464C95.7409 65.9908 103.982 69.3336 117.095 69.3336C121.409 69.3336 125.154 69.1245 128.315 68.8406C128.331 68.7834 128.358 68.7265 128.394 68.6706L138.652 52.9195L138.934 50.8013L139.3 48.0449L139.994 42.8254V42.8253Z" fill="#10111B"/>
<path fill-rule="evenodd" clip-rule="evenodd" d="M190.741 68.1228L174.609 25.8557H158.795L131.267 68.1228H146.232L149.968 61.3784H173.678L175.705 68.1228H190.741ZM172.347 54.9444H153.017L165.698 32.2513L172.347 54.9444Z" fill="#10111B"/>
<path fill-rule="evenodd" clip-rule="evenodd" d="M232.658 30.5682C230.09 26.6389 225.244 24.7622 215.724 24.7622C207.706 24.7622 201.092 24.8795 196.324 24.9382C193.56 24.9968 191.055 24.9968 188.792 25.0554L185.662 48.6059L193.365 68.788C193.389 68.8533 193.402 68.9181 193.403 68.9817H198.572L200.286 56.0795C201.941 56.1968 203.512 56.3141 204.917 56.4314C207.482 56.6073 210.223 56.7246 211.483 56.6659C221.84 56.6659 227.564 54.4374 231.218 49.5697C232.407 48.1622 233.176 45.5231 233.674 41.7697L233.947 39.7171C234.54 35.2599 233.805 32.6209 232.658 30.5682H232.658ZM219.858 38.896L219.336 42.8253C218.97 45.5817 218.192 46.4027 216.815 47.3411C215.331 48.4554 213.005 48.9832 201.354 48.0448L203.35 33.0313C213.875 32.3861 217.237 32.8553 218.979 34.2042C219.796 34.9666 220.24 36.0222 219.858 38.8959V38.896Z" fill="#10111B"/>
<path fill-rule="evenodd" clip-rule="evenodd" d="M245.408 33.5006H265.87L267 24.9968H230.419L230.167 26.8912C230.39 27.0299 230.608 27.1746 230.82 27.3264C232.008 28.1791 232.919 29.1747 233.626 30.2562C233.635 30.2696 233.642 30.2813 233.649 30.295C235.346 33.3315 235.435 36.5762 235.008 39.7866L234.735 41.8393C234.52 43.4603 234.238 45.1159 233.746 46.7081C233.416 47.7756 232.943 48.9865 232.148 49.9348C230.92 51.5671 229.37 53.0393 227.336 54.2211C227.054 54.3851 226.766 54.541 226.473 54.6894L224.573 68.9818H261.154L262.308 60.3021H241.846L243.101 50.86H258.385L260.455 42.8254H244.169L245.408 33.5006L245.408 33.5006Z" fill="#10111B"/>
<path fill-rule="evenodd" clip-rule="evenodd" d="M82.9513 0.923828C110.371 0.923828 134.672 7.10487 149.73 16.6222C135.34 11.0138 116.772 7.63327 96.4971 7.63327C50.7937 7.63327 13.7438 24.8008 13.7438 45.9779C13.7438 54.4496 19.6775 62.2781 29.718 68.6241C11.6707 61.5902 0.197998 51.0509 0.197998 39.2685C0.197998 18.0913 37.2479 0.923828 82.9513 0.923828L82.9513 0.923828Z" fill="url(#paint0_linear_5_204)"/>
<path d="M50.5679 86.5301C50.34 88.4798 49.6184 89.9864 48.403 91.0498C47.1961 92.1048 45.5882 92.6324 43.5794 92.6324C41.4019 92.6324 39.6547 91.8516 38.3381 90.2902C37.0298 88.7288 36.3757 86.6398 36.3757 84.0234V82.2509C36.3757 80.5375 36.6796 79.031 37.2873 77.7312C37.9034 76.4314 38.7727 75.4354 39.8953 74.7433C41.0178 74.0428 42.3176 73.6925 43.7947 73.6925C45.7528 73.6925 47.3227 74.2412 48.5043 75.3384C49.6859 76.4272 50.3738 77.938 50.5679 79.8708H48.1245C47.9135 78.4022 47.4535 77.3387 46.7445 76.6804C46.044 76.022 45.0607 75.6929 43.7947 75.6929C42.2417 75.6929 41.022 76.2668 40.1358 77.4147C39.258 78.5625 38.8192 80.1957 38.8192 82.3142V84.0993C38.8192 86.0996 39.2369 87.6906 40.0725 88.8722C40.9081 90.0539 42.0771 90.6447 43.5794 90.6447C44.9299 90.6447 45.9638 90.3408 46.6812 89.7331C47.4071 89.117 47.8882 88.0493 48.1245 86.5301H50.5679ZM52.9101 85.4033C52.9101 84.0613 53.1717 82.8544 53.695 81.7825C54.2267 80.7106 54.961 79.8834 55.8979 79.3011C56.8432 78.7187 57.9193 78.4275 59.1263 78.4275C60.9916 78.4275 62.4981 79.0732 63.646 80.3645C64.8023 81.6559 65.3805 83.3735 65.3805 85.5173V85.6819C65.3805 87.0154 65.123 88.2139 64.6082 89.2774C64.1018 90.3324 63.3717 91.1553 62.418 91.7461C61.4727 92.3369 60.3839 92.6324 59.1516 92.6324C57.2948 92.6324 55.7882 91.9867 54.6319 90.6953C53.484 89.404 52.9101 87.6948 52.9101 85.5679V85.4033ZM55.2649 85.6819C55.2649 87.2011 55.6152 88.4207 56.3157 89.3407C57.0247 90.2607 57.97 90.7207 59.1516 90.7207C60.3417 90.7207 61.287 90.2564 61.9875 89.328C62.688 88.3912 63.0383 87.0829 63.0383 85.4033C63.0383 83.901 62.6796 82.6856 61.9622 81.7572C61.2532 80.8203 60.3079 80.3519 59.1263 80.3519C57.97 80.3519 57.0373 80.8119 56.3284 81.7318C55.6194 82.6518 55.2649 83.9685 55.2649 85.6819ZM70.5332 78.6807L70.6092 80.4025C71.6558 79.0858 73.0231 78.4275 74.7111 78.4275C77.6061 78.4275 79.0663 80.0607 79.0916 83.327V92.3792H76.7494V83.3144C76.741 82.3269 76.5131 81.5968 76.0658 81.1241C75.6269 80.6515 74.939 80.4152 74.0021 80.4152C73.2425 80.4152 72.5757 80.6177 72.0018 81.0229C71.4279 81.428 70.9805 81.9597 70.6598 82.6181V92.3792H68.3177V78.6807H70.5332ZM85.8015 75.3637V78.6807H88.3589V80.4911H85.8015V88.9862C85.8015 89.5348 85.9155 89.9484 86.1434 90.2269C86.3713 90.497 86.7595 90.632 87.3081 90.632C87.5782 90.632 87.9496 90.5814 88.4222 90.4801V92.3792C87.8061 92.548 87.2068 92.6324 86.6245 92.6324C85.5779 92.6324 84.7887 92.3158 84.257 91.6828C83.7252 91.0498 83.4594 90.1509 83.4594 88.9862V80.4911H80.9653V78.6807H83.4594V75.3637H85.8015ZM99.5633 92.3792C99.4282 92.1091 99.3185 91.628 99.2341 90.9359C98.1453 92.0669 96.8455 92.6324 95.3347 92.6324C93.9843 92.6324 92.8744 92.2525 92.0051 91.4929C91.1442 90.7249 90.7137 89.7542 90.7137 88.5811C90.7137 87.1547 91.2539 86.049 92.3343 85.2641C93.423 84.4707 94.9507 84.074 96.9173 84.074H99.1961V82.9979C99.1961 82.1792 98.9514 81.5293 98.4618 81.0482C97.9723 80.5586 97.2507 80.3139 96.2969 80.3139C95.4613 80.3139 94.7608 80.5249 94.1953 80.9469C93.6298 81.3689 93.3471 81.8795 93.3471 82.4788H90.9923C90.9923 81.7951 91.2328 81.1368 91.7139 80.5038C92.2034 79.8623 92.8618 79.3559 93.6889 78.9846C94.5245 78.6132 95.4402 78.4275 96.4362 78.4275C98.0145 78.4275 99.251 78.8242 100.146 79.6176C101.04 80.4025 101.505 81.4871 101.538 82.8713V89.1761C101.538 90.4337 101.699 91.4338 102.019 92.1766V92.3792H99.5633ZM95.6766 90.594C96.4109 90.594 97.1072 90.4041 97.7655 90.0243C98.4239 89.6445 98.9007 89.1508 99.1961 88.5431V85.7325H97.3604C94.4907 85.7325 93.0559 86.5723 93.0559 88.2519C93.0559 88.9862 93.3007 89.5601 93.7902 89.9737C94.2797 90.3873 94.9085 90.594 95.6766 90.594ZM116.807 85.6819C116.807 87.775 116.326 89.4588 115.363 90.7333C114.401 91.9993 113.11 92.6324 111.489 92.6324C109.759 92.6324 108.421 92.0204 107.476 90.7966L107.362 92.3792H105.21V72.9329H107.552V80.1873C108.497 79.0141 109.801 78.4275 111.464 78.4275C113.127 78.4275 114.431 79.0563 115.376 80.3139C116.33 81.5715 116.807 83.2933 116.807 85.4793V85.6819ZM114.464 85.416C114.464 83.8208 114.156 82.5885 113.54 81.7192C112.924 80.8498 112.038 80.4152 110.882 80.4152C109.337 80.4152 108.227 81.1326 107.552 82.5674V88.4924C108.269 89.9273 109.388 90.6447 110.907 90.6447C112.029 90.6447 112.903 90.21 113.528 89.3407C114.152 88.4713 114.464 87.1631 114.464 85.416ZM122.314 92.3792H119.972V78.6807H122.314V92.3792ZM119.782 75.0472C119.782 74.6674 119.896 74.3467 120.124 74.085C120.36 73.8234 120.706 73.6925 121.162 73.6925C121.618 73.6925 121.964 73.8234 122.2 74.085C122.436 74.3467 122.554 74.6674 122.554 75.0472C122.554 75.427 122.436 75.7435 122.2 75.9967C121.964 76.2499 121.618 76.3765 121.162 76.3765C120.706 76.3765 120.36 76.2499 120.124 75.9967C119.896 75.7435 119.782 75.427 119.782 75.0472ZM128.619 92.3792H126.277V72.9329H128.619V92.3792ZM134.924 92.3792H132.581V78.6807H134.924V92.3792ZM132.391 75.0472C132.391 74.6674 132.505 74.3467 132.733 74.085C132.97 73.8234 133.316 73.6925 133.771 73.6925C134.227 73.6925 134.573 73.8234 134.81 74.085C135.046 74.3467 135.164 74.6674 135.164 75.0472C135.164 75.427 135.046 75.7435 134.81 75.9967C134.573 76.2499 134.227 76.3765 133.771 76.3765C133.316 76.3765 132.97 76.2499 132.733 75.9967C132.505 75.7435 132.391 75.427 132.391 75.0472ZM138.114 85.416C138.114 83.3144 138.612 81.6263 139.608 80.3519C140.604 79.069 141.908 78.4275 143.52 78.4275C145.123 78.4275 146.394 78.9761 147.331 80.0733V72.9329H149.673V92.3792H147.521L147.407 90.9106C146.47 92.0584 145.166 92.6324 143.495 92.6324C141.908 92.6324 140.612 91.9825 139.608 90.6827C138.612 89.3829 138.114 87.6864 138.114 85.5932V85.416ZM140.456 85.6819C140.456 87.2348 140.777 88.4502 141.418 89.328C142.06 90.2058 142.946 90.6447 144.077 90.6447C145.562 90.6447 146.647 89.9779 147.331 88.6444V82.3522C146.63 81.0608 145.554 80.4152 144.102 80.4152C142.954 80.4152 142.06 80.8583 141.418 81.7445C140.777 82.6307 140.456 83.9432 140.456 85.6819ZM161.776 92.3792C161.641 92.1091 161.531 91.628 161.447 90.9359C160.358 92.0669 159.058 92.6324 157.547 92.6324C156.197 92.6324 155.087 92.2525 154.218 91.4929C153.357 90.7249 152.926 89.7542 152.926 88.5811C152.926 87.1547 153.467 86.049 154.547 85.2641C155.636 84.4707 157.163 84.074 159.13 84.074H161.409V82.9979C161.409 82.1792 161.164 81.5293 160.675 81.0482C160.185 80.5586 159.463 80.3139 158.51 80.3139C157.674 80.3139 156.974 80.5249 156.408 80.9469C155.843 81.3689 155.56 81.8795 155.56 82.4788H153.205C153.205 81.7951 153.446 81.1368 153.927 80.5038C154.416 79.8623 155.074 79.3559 155.902 78.9846C156.737 78.6132 157.653 78.4275 158.649 78.4275C160.227 78.4275 161.464 78.8242 162.358 79.6176C163.253 80.4025 163.717 81.4871 163.751 82.8713V89.1761C163.751 90.4337 163.911 91.4338 164.232 92.1766V92.3792H161.776ZM157.889 90.594C158.624 90.594 159.32 90.4041 159.978 90.0243C160.637 89.6445 161.113 89.1508 161.409 88.5431V85.7325H159.573C156.703 85.7325 155.269 86.5723 155.269 88.2519C155.269 88.9862 155.513 89.5601 156.003 89.9737C156.492 90.3873 157.121 90.594 157.889 90.594ZM166.853 85.416C166.853 83.3144 167.351 81.6263 168.347 80.3519C169.343 79.069 170.647 78.4275 172.259 78.4275C173.862 78.4275 175.133 78.9761 176.069 80.0733V72.9329H178.412V92.3792H176.259L176.145 90.9106C175.209 92.0584 173.905 92.6324 172.233 92.6324C170.647 92.6324 169.351 91.9825 168.347 90.6827C167.351 89.3829 166.853 87.6864 166.853 85.5932V85.416ZM169.195 85.6819C169.195 87.2348 169.516 88.4502 170.157 89.328C170.799 90.2058 171.685 90.6447 172.816 90.6447C174.301 90.6447 175.386 89.9779 176.069 88.6444V82.3522C175.369 81.0608 174.293 80.4152 172.841 80.4152C171.693 80.4152 170.799 80.8583 170.157 81.7445C169.516 82.6307 169.195 83.9432 169.195 85.6819ZM187.742 92.6324C185.885 92.6324 184.375 92.0247 183.21 90.8093C182.045 89.5854 181.463 87.9523 181.463 85.9097V85.4793C181.463 84.1204 181.72 82.9092 182.235 81.8458C182.758 80.7739 183.484 79.9383 184.413 79.339C185.349 78.7313 186.362 78.4275 187.451 78.4275C189.232 78.4275 190.616 79.0141 191.604 80.1873C192.591 81.3605 193.085 83.0401 193.085 85.2261V86.2009H183.805C183.839 87.5514 184.231 88.6444 184.982 89.4799C185.742 90.3071 186.704 90.7207 187.869 90.7207C188.696 90.7207 189.397 90.5518 189.971 90.2142C190.544 89.8766 191.047 89.4293 191.477 88.8722L192.908 89.9864C191.76 91.7504 190.038 92.6324 187.742 92.6324ZM187.451 80.3519C186.506 80.3519 185.712 80.6979 185.071 81.39C184.43 82.0737 184.033 83.0358 183.881 84.2766H190.743V84.0993C190.675 82.9092 190.355 81.9893 189.781 81.3394C189.207 80.681 188.43 80.3519 187.451 80.3519Z" fill="#10111B"/>
<defs>
<linearGradient id="paint0_linear_5_204" x1="133.742" y1="10.0288" x2="-53.1877" y2="45.5156" gradientUnits="userSpaceOnUse">
<stop stop-color="#FF0000"/>
<stop offset="1"/>
</linearGradient>
</defs>
</svg>
