<svg width="105" height="105" viewBox="0 0 105 105" fill="none" xmlns="http://www.w3.org/2000/svg">
<path d="M26.9188 87.3553H48.5625V96.0127H26.9188C22.1139 96.0127 18.2613 92.1602 18.2613 87.3553V18.0955C18.2613 15.7994 19.1735 13.5973 20.7971 11.9737C22.4206 10.3501 24.6227 9.43799 26.9188 9.43799H78.8637C81.1598 9.43799 83.3618 10.3501 84.9854 11.9737C86.609 13.5973 87.5211 15.7994 87.5211 18.0955V45.3665C86.5688 45.886 85.6598 46.492 84.8806 47.2712L78.8637 53.2881V18.0955H57.22V52.7254L46.3981 42.9857L35.5763 52.7254V18.0955H26.9188V87.3553ZM99.858 59.0886L94.1441 53.3747C93.2784 52.5089 91.8499 52.5089 91.0274 53.3747L86.7853 57.6168L95.6159 66.4475L99.858 62.2053C100.724 61.3828 100.724 59.9544 99.858 59.0886ZM57.22 87.1821V96.0127H66.0506L92.5858 69.5209L83.7551 60.647L57.22 87.1821Z" fill="url(#paint0_linear_3_109)"/>
<defs>
<linearGradient id="paint0_linear_3_109" x1="18.2613" y1="96.0127" x2="104.722" y2="13.8748" gradientUnits="userSpaceOnUse">
<stop stop-color="#550101"/>
<stop offset="1" stop-color="#EF0101"/>
</linearGradient>
</defs>
</svg>
